<svg xmlns="http://www.w3.org/2000/svg" xmlns:xlink="http://www.w3.org/1999/xlink" version="1.1" id="Layer_1" x="0px" y="0px" width="60px" height="92px" viewBox="0 0 60 92" enable-background="new 0 0 60 92" xml:space="preserve">
<g id="Group_233" transform="translate(-63 -0.001)">
	<g id="Exclusion_1" transform="translate(-11212 -3978)">
		<path fill="#FFFFFF" d="M11334.5,4069.499h-59V4039.5h0.498H11334h0.5v-0.5V3979v-0.499l0,0V4069.499z"/>
		<path fill="#FFFFFF" d="M11334,4068.999V4040h-58v28.998H11334 M11335,4070v-0.002h-60v-91.998h60V4070z M11275.998,3979V4039    H11334V3979H11275.998z"/>
	</g>
	<rect id="Rectangle_399" x="64" y="1" opacity="0.85" fill="#04A64B" enable-background="new    " width="58" height="60"/>
	<g enable-background="new    " fill="#FFFFFF">
		<path fill="#FFFFFF" d="M67.508,75.655c-0.702-0.402-1.241-0.969-1.618-1.695c-0.377-0.729-0.565-1.568-0.565-2.523    c0-0.961,0.212-1.814,0.637-2.561c0.425-0.744,1.034-1.326,1.827-1.742s1.718-0.623,2.775-0.623c0.849,0,1.605,0.123,2.269,0.371    c0.663,0.246,1.198,0.59,1.605,1.033c0.407,0.441,0.68,0.943,0.819,1.508l-2.431,0.428c-0.122-0.477-0.377-0.859-0.767-1.15    c-0.39-0.289-0.901-0.436-1.534-0.436c-0.867,0-1.541,0.281-2.021,0.84s-0.721,1.328-0.721,2.307c0,0.963,0.24,1.721,0.721,2.275    s1.164,0.832,2.047,0.832c0.52,0,0.973-0.096,1.359-0.285c0.385-0.191,0.678-0.434,0.877-0.729    c0.199-0.295,0.303-0.604,0.312-0.924v-0.117h-2.782v-1.611h4.966V76h-1.742l-0.104-1.443c-0.277,0.52-0.708,0.934-1.293,1.242    c-0.585,0.307-1.302,0.461-2.151,0.461C69.038,76.26,68.21,76.059,67.508,75.655z"/>
		<path fill="#FFFFFF" d="M79.904,69.844c0.43-0.342,0.959-0.514,1.592-0.514c0.199,0,0.344,0.01,0.43,0.027v2.041    c-0.295-0.035-0.516-0.053-0.662-0.053c-0.65,0-1.145,0.16-1.482,0.48c-0.391,0.355-0.586,0.936-0.586,1.742V76h-2.248v-6.5h2.041    v1.781C79.169,70.667,79.474,70.186,79.904,69.844z"/>
		<path fill="#FFFFFF" d="M90.304,71.379c0.169,0.402,0.253,0.855,0.253,1.357c0,0.719-0.171,1.34-0.513,1.859c-0.343,0.52-0.819,0.916-1.431,1.189    c-0.61,0.273-1.315,0.41-2.112,0.41c-0.962,0-1.785-0.195-2.47-0.586l-0.741,0.701l-0.546-0.453l0.702-0.678    c-0.676-0.623-1.015-1.438-1.015-2.443c0-0.711,0.172-1.326,0.514-1.846c0.343-0.52,0.821-0.914,1.437-1.184    c0.615-0.268,1.321-0.402,2.119-0.402c0.962,0,1.785,0.195,2.47,0.584l0.729-0.688l0.546,0.48l-0.676,0.65    C89.89,70.627,90.135,70.975,90.304,71.379z M84.928,73.778l2.718-2.613c-0.295-0.242-0.677-0.365-1.145-0.365    c-0.555,0-0.99,0.168-1.307,0.502c-0.316,0.332-0.475,0.812-0.475,1.436C84.72,73.153,84.79,73.5,84.928,73.778z M87.795,74.186    c0.315-0.342,0.475-0.824,0.475-1.449c0-0.373-0.062-0.701-0.183-0.988l-2.729,2.588c0.312,0.242,0.693,0.363,1.144,0.363    C87.047,74.7,87.479,74.53,87.795,74.186z"/>
		<path fill="#FFFFFF" d="M91.871,69.5h2.184v1.352c0.529-1.031,1.426-1.547,2.691-1.547c0.9,0,1.588,0.26,2.061,0.779    c0.473,0.521,0.709,1.283,0.709,2.289V76h-2.25v-3.316c0-0.58-0.121-1.012-0.363-1.293c-0.244-0.281-0.615-0.422-1.119-0.422    c-0.527,0-0.938,0.162-1.229,0.486c-0.289,0.326-0.436,0.783-0.436,1.373V76h-2.249V69.5z"/>
	</g>
</g>
</svg>
