<?xml version="1.0" encoding="UTF-8"?>
<svg id="Layer_1" data-name="Layer 1" xmlns="http://www.w3.org/2000/svg" viewBox="0 0 441.15 176.34">
  <defs>
    <style>
      .cls-1 {
        fill: #130c0e;
      }
    </style>
  </defs>
  <polygon class="cls-1" points="174.09 160.59 174.09 126.94 177.41 126.94 177.41 146.49 195.94 126.89 199.59 126.89 185.84 141.7 200.3 160.59 196.56 160.59 183.71 143.69 177.41 150.24 177.41 160.59 174.09 160.59"/>
  <path class="cls-1" d="m220.9,160.82c-2.37,0-4.52-.47-6.45-1.42-1.93-.95-3.59-2.24-4.98-3.86-1.39-1.63-2.47-3.46-3.22-5.5-.76-2.04-1.14-4.13-1.14-6.28s.39-4.38,1.18-6.42c.79-2.04,1.9-3.85,3.34-5.45,1.44-1.6,3.12-2.86,5.05-3.79,1.93-.93,4.01-1.4,6.26-1.4,2.37,0,4.52.49,6.44,1.47,1.93.98,3.58,2.29,4.95,3.93,1.38,1.64,2.44,3.48,3.2,5.5.76,2.02,1.14,4.09,1.14,6.21,0,2.24-.4,4.38-1.19,6.42-.79,2.04-1.9,3.85-3.32,5.45-1.42,1.6-3.1,2.85-5.02,3.77-1.93.92-4.01,1.37-6.26,1.37m-12.47-17.06c0,1.83.3,3.6.9,5.29.6,1.69,1.45,3.19,2.56,4.5,1.11,1.31,2.42,2.35,3.96,3.13,1.53.78,3.22,1.16,5.05,1.16,1.93,0,3.66-.4,5.19-1.21,1.53-.81,2.84-1.88,3.93-3.22,1.09-1.34,1.92-2.85,2.49-4.53.57-1.67.85-3.38.85-5.12,0-1.83-.3-3.59-.9-5.26-.6-1.67-1.46-3.18-2.58-4.5-1.12-1.33-2.44-2.37-3.96-3.13-1.52-.76-3.19-1.14-5.02-1.14s-3.61.4-5.14,1.18c-1.53.79-2.85,1.86-3.93,3.2-1.09,1.34-1.93,2.85-2.51,4.53-.59,1.68-.88,3.38-.88,5.12"/>
  <polygon class="cls-1" points="275.94 160.59 275.94 133.19 263.76 154.47 261.68 154.47 249.45 133.19 249.45 160.59 246.13 160.59 246.13 126.94 249.54 126.94 262.67 149.97 275.9 126.94 279.26 126.94 279.26 160.59 275.94 160.59"/>
  <polygon class="cls-1" points="322.46 160.59 322.46 133.19 310.28 154.47 308.19 154.47 295.96 133.19 295.96 160.59 292.64 160.59 292.64 126.94 296.06 126.94 309.19 149.97 322.41 126.94 325.77 126.94 325.77 160.59 322.46 160.59"/>
  <path class="cls-1" d="m351.35,160.83c-2.66,0-4.9-.47-6.73-1.42-1.83-.95-3.29-2.22-4.36-3.82-1.07-1.59-1.86-3.41-2.35-5.43-.49-2.02-.73-4.11-.73-6.26v-16.97h3.27v16.97c0,1.74.18,3.44.55,5.12.36,1.68.95,3.18,1.78,4.5.82,1.33,1.93,2.38,3.32,3.15,1.39.77,3.13,1.16,5.21,1.16s3.93-.4,5.33-1.21c1.4-.81,2.51-1.87,3.32-3.2.8-1.33,1.38-2.82,1.73-4.48.35-1.66.52-3.34.52-5.05v-16.97h3.32v16.97c0,2.24-.25,4.39-.76,6.44-.51,2.06-1.32,3.86-2.44,5.4-1.12,1.55-2.58,2.78-4.38,3.7-1.8.92-4,1.38-6.59,1.38"/>
  <polygon class="cls-1" points="380.85 133.05 380.85 160.59 377.53 160.59 377.53 126.94 380.28 126.94 402.37 154.99 402.37 126.98 405.69 126.98 405.69 160.59 402.6 160.59 380.85 133.05"/>
  <polygon class="cls-1" points="418.47 126.94 418.47 160.59 441.08 160.59 441.08 157.65 421.78 157.65 421.78 144.81 438.23 144.81 438.23 142.01 421.78 142.01 421.78 129.87 440.65 129.87 440.65 126.94 418.47 126.94"/>
  <path class="cls-1" d="m441.15,15.52h-36.43v46.97c0,.17-.21,17.66,13.62,31.49,9.29,9.29,21.88,11.9,22,11.93l.81.17v-8.37h0c-2.61-.69-10.86-3.27-17.11-9.53-11.1-11.1-11.22-24.98-11.22-25.57v-8.27h28.33v-8.17h-28.33v-22.49h28.33v-8.17Z"/>
  <path class="cls-1" d="m376.39,15.51h-8.1v47.04c0,.16-.18,17.63,13.62,31.43,9.21,9.22,21.88,11.9,22.01,11.93l.78.17h.02v-8.38c-2.61-.69-10.86-3.27-17.11-9.53-11.09-11.1-11.22-24.99-11.22-25.57V15.51Z"/>
  <path class="cls-1" d="m352.14,15.51h-36.43v8.17h28.33v38.92c0,.59-.13,14.48-11.22,25.57-6.25,6.25-14.5,8.83-17.11,9.53v8.37h.02s.78-.16.78-.16c.13-.03,12.8-2.71,22.01-11.93,13.8-13.8,13.62-31.27,13.62-31.43V15.51Z"/>
  <path class="cls-1" d="m299.56,15.52h-36.43v46.97c0,.17-.21,17.66,13.62,31.49,9.29,9.29,21.88,11.9,22,11.93l.81.17v-8.37h0c-2.61-.69-10.86-3.27-17.11-9.53-11.1-11.1-11.22-24.98-11.22-25.57v-8.27h28.33v-8.17h-28.33v-22.49h28.33v-8.17Z"/>
  <path class="cls-1" d="m246.97,15.56h-8.08v44.1c0,.08,0,.83-.18,2.1-.27,1.91-.94,4.95-2.59,8.56-1.65,3.62-4.27,7.8-8.52,12.05-1.87,1.87-4.03,3.79-6.2,5.6-3.26,2.72-6.56,5.19-9.03,6.98-.68.49-1.3.93-1.83,1.31-1.21-.85-2.82-2.01-4.64-3.38-1.94-1.46-4.12-3.15-6.27-4.95-2.16-1.8-4.29-3.7-6.15-5.56-2.83-2.83-4.94-5.64-6.52-8.26-2.37-3.94-3.56-7.49-4.16-10.09-.3-1.3-.45-2.36-.53-3.11-.08-.75-.08-1.19-.08-1.25,0-.03,0-43.03,0-44.1h-8.08c0,1.07,0,44.08,0,44.1,0,.39.02,1.54.26,3.24.36,2.55,1.22,6.35,3.24,10.78,2.02,4.42,5.2,9.46,10.16,14.41,2.11,2.11,4.43,4.17,6.74,6.1,3.46,2.89,6.89,5.46,9.46,7.32,2.57,1.86,4.29,3.01,4.33,3.03l2.24,1.5,2.25-1.5s3.09-2.06,7.15-5.12c2.04-1.53,4.33-3.31,6.64-5.24,2.31-1.92,4.63-3.99,6.74-6.1,3.3-3.3,5.82-6.64,7.73-9.81,2.86-4.75,4.35-9.12,5.11-12.44.38-1.66.59-3.06.7-4.11.11-1.06.12-1.78.12-2.08V15.56Z"/>
  <path class="cls-1" d="m142.56,91.48V0H0v91.36c0,.34-.52,34.31,26.5,61.33,18.07,18.07,42.65,23.19,42.89,23.24l1.94.4,1.85-.4c.25-.05,24.91-5.27,42.88-23.24,26.5-26.5,26.52-59.68,26.5-61.22m-4.59-.76c-3.48-5.79-9.86-9.69-17.16-9.69-.52,0-1.04.02-1.56.06-.16-2.87-.48-8.55-.77-14.59l5.15-5.78c1.72.56,5.29,1.31,7.56-.93,3.08-3.05,2.88-6.27,3.15-8.29.29-2.19.86-3.58.86-3.58h0s-1.4.56-3.62.84c-2.04.26-5.3.06-8.38,3.11-2.27,2.25-1.5,5.78-.94,7.49l-3.94,3.43c-.27-6.05-.48-11.96-.44-15.3,0-.13,0-.27,0-.41l5.04-5.65c1.72.56,5.29,1.31,7.56-.93,3.08-3.05,2.88-6.27,3.14-8.29.29-2.19.86-3.58.86-3.58h0s-1.4.55-3.61.84c-2.04.26-5.3.06-8.38,3.11-2.27,2.25-1.5,5.78-.94,7.49l-3.67,3.2c-.08-6.21-.39-14.15-.51-17.15,1.66-.87,4.47-2.8,4.47-5.84,0-4.31-2.45-6.45-3.7-8.06-1.36-1.75-1.95-3.13-1.95-3.13h0s-.59,1.38-1.95,3.13c-1.26,1.62-3.7,3.75-3.7,8.06,0,3.03,2.79,4.95,4.45,5.83-.12,2.99-.43,10.93-.51,17.14l-3.65-3.18c.56-1.7,1.33-5.24-.94-7.49-3.08-3.05-6.33-2.85-8.38-3.11-2.22-.29-3.62-.85-3.62-.85h0s.57,1.39.86,3.59c.26,2.02.06,5.24,3.14,8.29,2.27,2.24,5.83,1.49,7.56.93l5.02,5.62c0,.15,0,.29,0,.43.04,3.34-.17,9.24-.44,15.28l-3.93-3.42c.56-1.7,1.33-5.24-.94-7.49-3.08-3.05-6.34-2.85-8.38-3.11-2.22-.29-3.62-.85-3.62-.85h0s.57,1.39.86,3.59c.26,2.02.06,5.24,3.14,8.29,2.27,2.24,5.84,1.49,7.56.93l5.14,5.76c-.36,7.34-.75,14.16-.86,16.04-3.91,1.54-7.24,4.19-9.27,7.59,0,0,0-.02.01-.02-5.27-2.78-10.95-4.9-16.93-6.25-2.62-4.86-5.99-8.41-5.99-15.35,0-9.9,9-14.55,9-25.38s-9-14.38-9-25.24c0-6.34,2.94-9.57,5.46-13.57h51.75c0,2.01,0,74.75,0,86.43m-34.81.32s-.02.04-.03.05c0-.02.02-.04.03-.05m-.45.97s-.04.08-.05.13c.02-.04.04-.08.05-.13m-.37.99c-.02.07-.05.13-.07.2.02-.07.05-.13.07-.2m-.37,1.25s0,0,0,0c0,0,0,.02,0,.02,0,0,0-.02,0-.02,0,0,0,0,0,0m-30.18-12.14c-2.41-4.05-5.01-7.52-5.01-13.62,0-9.9,9.01-14.55,9.01-25.38s-9.01-14.38-9.01-25.24c0-6.34,2.94-9.57,5.46-13.57h3.55c-2.51,4-5.46,7.23-5.46,13.57,0,10.85,9.01,14.17,9.01,25.24s-9.01,15.48-9.01,25.38c0,6.15,2.65,9.64,5.08,13.74-1.2-.07-2.41-.11-3.62-.12m-32.93,7.97c-2.03-3.38-5.35-6.02-9.25-7.55-.11-1.89-.51-8.7-.86-16.04l5.13-5.76c1.72.56,5.29,1.31,7.56-.93,3.08-3.05,2.88-6.27,3.15-8.29.29-2.19.85-3.58.85-3.58h0s-1.4.56-3.62.84c-2.04.26-5.3.06-8.38,3.11-2.27,2.25-1.5,5.78-.94,7.49l-3.92,3.42c-.27-6.04-.48-11.94-.44-15.28,0-.14,0-.28,0-.43l5.02-5.62c1.72.56,5.29,1.31,7.56-.93,3.08-3.05,2.88-6.27,3.14-8.29.29-2.19.86-3.58.86-3.58h0s-1.4.55-3.62.84c-2.04.26-5.3.06-8.38,3.11-2.27,2.25-1.5,5.78-.94,7.49l-3.65,3.18c-.08-6.21-.39-14.15-.51-17.14,1.66-.88,4.45-2.8,4.45-5.83,0-4.31-2.44-6.45-3.7-8.06-1.36-1.75-1.95-3.13-1.95-3.13h0s-.59,1.38-1.95,3.13c-1.26,1.62-3.7,3.75-3.7,8.06,0,3.04,2.81,4.97,4.47,5.84-.12,3-.43,10.94-.51,17.15l-3.67-3.2c.56-1.7,1.33-5.24-.94-7.49-3.08-3.05-6.34-2.85-8.38-3.11-2.22-.29-3.61-.85-3.61-.85h0s.57,1.39.86,3.59c.27,2.02.07,5.24,3.15,8.29,2.27,2.24,5.83,1.49,7.56.93l5.04,5.65c0,.14,0,.28,0,.41.04,3.34-.17,9.25-.44,15.3l-3.94-3.43c.56-1.7,1.33-5.24-.94-7.49-3.08-3.05-6.34-2.85-8.38-3.11-2.22-.29-3.62-.85-3.62-.85h0s.57,1.39.86,3.59c.27,2.02.07,5.24,3.14,8.29,2.27,2.24,5.83,1.49,7.56.93l5.16,5.78c-.29,6.04-.61,11.72-.77,14.59-.52-.04-1.04-.06-1.57-.06-7.29,0-13.66,3.88-17.14,9.66V4.29h57.2c-2.51,4-5.46,7.23-5.46,13.57,0,10.85,9,14.17,9,25.24s-9,15.48-9,25.38c0,6.42,2.89,9.93,5.39,14.27-8.16,1.12-15.87,3.64-22.87,7.32m5.63,22.76c5.22-3,11.01-5.14,17.16-6.25-2.48,4.32-5.31,9.02-5.31,16.75,0,9.25,7.77,13.94,7.77,21.86,0,9.62-5.93,10.5-5.93,20.24,0,1.04.08,2.02.19,2.98-.7-.28-1.42-.58-2.16-.9-7.09-31.43-9.95-45.61-11.72-54.69m24.14,52.61c0-9.75,5.93-10.62,5.93-20.24,0-7.92-7.77-12.61-7.77-21.86,0-8.23,3.2-13.03,5.79-17.59,1.16.03,2.31.09,3.44.19-2.57,4.5-5.68,9.28-5.68,17.4,0,9.25,7.78,13.94,7.78,21.86,0,9.62-5.93,10.5-5.93,20.24,0,2.47.35,4.72.86,6.74-.85.22-1.45.36-1.75.43-.31-.07-.93-.21-1.81-.44-.51-2.01-.86-4.26-.86-6.72m14.23,3.52c-.15-1.12-.23-2.29-.23-3.52,0-9.75,5.93-10.62,5.93-20.24,0-7.92-7.77-12.61-7.77-21.86,0-7.12,2.39-11.67,4.71-15.72,4.45,1.21,8.67,2.98,12.58,5.23-1.78,9.08-4.64,23.27-11.73,54.69-1.21.52-2.37.99-3.49,1.43"/>
</svg>